<?xml version="1.0" standalone="no"?><!DOCTYPE svg PUBLIC "-//W3C//DTD SVG 1.1//EN" "http://www.w3.org/Graphics/SVG/1.1/DTD/svg11.dtd"><svg t="1759846000578" class="icon" viewBox="0 0 1024 1024" version="1.1" xmlns="http://www.w3.org/2000/svg" p-id="9372" xmlns:xlink="http://www.w3.org/1999/xlink" width="23" height="23"><path d="M255.861854 255.840876m-102.33062 0a100 100 0 1 0 204.66124 0 100 100 0 1 0-204.66124 0Z" p-id="9373"></path><path d="M768.137123 255.840876m-102.33062 0a100 100 0 1 0 204.66124 0 100 100 0 1 0-204.66124 0Z" p-id="9374"></path><path d="M768.137123 768.158101m-102.33062 0a100 100 0 1 0 204.66124 0 100 100 0 1 0-204.66124 0Z" p-id="9375"></path><path d="M255.862877 768.158101m-102.33062 0a100 100 0 1 0 204.66124 0 100 100 0 1 0-204.66124 0Z" p-id="9376"></path></svg>