<?xml version="1.0" standalone="no"?><!DOCTYPE svg PUBLIC "-//W3C//DTD SVG 1.1//EN" "http://www.w3.org/Graphics/SVG/1.1/DTD/svg11.dtd"><svg t="1739452497814" class="icon" viewBox="0 0 1024 1024" version="1.1" xmlns="http://www.w3.org/2000/svg" p-id="6677" xmlns:xlink="http://www.w3.org/1999/xlink" width="24" height="24"><path d="M445.18 445.2a94.5 94.5 0 1 1 0 133.6 94.48 94.48 0 0 1 0-133.6zM139.68 445.2a94.48 94.48 0 1 1 0 133.6 94.46 94.46 0 0 1 0-133.6zM750.68 445.2a94.5 94.5 0 1 1 0 133.6 94.48 94.48 0 0 1 0-133.6zM445.18 139.68a94.5 94.5 0 1 1 0 133.62 94.52 94.52 0 0 1 0-133.62zM445.18 750.7a94.5 94.5 0 1 1 0 133.62 94.48 94.48 0 0 1 0-133.62z" fill="#9466a1" p-id="6678"></path></svg>