<?xml version="1.0" standalone="no"?><!DOCTYPE svg PUBLIC "-//W3C//DTD SVG 1.1//EN" "http://www.w3.org/Graphics/SVG/1.1/DTD/svg11.dtd"><svg t="1739454596914" class="icon" viewBox="0 0 1024 1024" version="1.1" xmlns="http://www.w3.org/2000/svg" p-id="12949" xmlns:xlink="http://www.w3.org/1999/xlink" width="24" height="24"><path d="M0 0h1024v1024H0z" fill="#7394ba" fill-opacity=".01" p-id="12950"></path><path d="M213.333333 213.333333m-128 0a128 128 0 1 0 256 0 128 128 0 1 0-256 0Z" fill="#7394ba" p-id="12951"></path><path d="M810.666667 213.333333m-128 0a128 128 0 1 0 256 0 128 128 0 1 0-256 0Z" fill="#7394ba" p-id="12952"></path><path d="M810.666667 810.666667m-128 0a128 128 0 1 0 256 0 128 128 0 1 0-256 0Z" fill="#7394ba" p-id="12953"></path><path d="M213.333333 810.666667m-128 0a128 128 0 1 0 256 0 128 128 0 1 0-256 0Z" fill="#7394ba" p-id="12954"></path></svg>